<svg xmlns="http://www.w3.org/2000/svg" viewBox="0 0 48 48" fill="none">
  <!-- bread body -->
  <path d="M8 28c0-10 5-18 16-18s16 8 16 18c0 4-2 8-4 8H12c-2 0-4-4-4-8z" fill="#FBBD40" stroke="#3A1F54" stroke-width="2.8" stroke-linejoin="round"/>
  <!-- score lines -->
  <path d="M18 14c-1 5-1 10 0 14" stroke="#3A1F54" stroke-width="1.8" stroke-linecap="round" fill="none"/>
  <path d="M24 12c0 5 0 10 0 16" stroke="#3A1F54" stroke-width="1.8" stroke-linecap="round" fill="none"/>
  <path d="M30 14c1 5 1 10 0 14" stroke="#3A1F54" stroke-width="1.8" stroke-linecap="round" fill="none"/>
  <!-- face -->
  <circle cx="20" cy="24" r="1.5" fill="#3A1F54"/>
  <circle cx="28" cy="24" r="1.5" fill="#3A1F54"/>
  <path d="M22 29q2 2 4 0" stroke="#3A1F54" stroke-width="1.5" stroke-linecap="round" fill="none"/>
  <!-- base -->
  <rect x="10" y="34" width="28" height="5" rx="2.5" fill="#FBBD40" stroke="#3A1F54" stroke-width="2.5"/>
</svg>
