<svg xmlns="http://www.w3.org/2000/svg" viewBox="0 0 48 48" fill="none">
  <!-- body -->
  <path d="M24 4c-6 10-7 20-7 26h14c0-6-1-16-7-26z" fill="#FBBD40" stroke="#3A1F54" stroke-width="2.8" stroke-linecap="round" stroke-linejoin="round"/>
  <!-- window -->
  <circle cx="24" cy="18" r="4" fill="#fff" stroke="#3A1F54" stroke-width="2.2"/>
  <circle cx="23" cy="17" r="1.2" fill="#3A1F54"/>
  <circle cx="25.5" cy="17" r="1.2" fill="#3A1F54"/>
  <path d="M22.5 20q1.5 1.2 3 0" stroke="#3A1F54" stroke-width="1.2" stroke-linecap="round" fill="none"/>
  <!-- fins -->
  <path d="M17 30l-5 6h5" fill="#FBBD40" stroke="#3A1F54" stroke-width="2.5" stroke-linecap="round" stroke-linejoin="round"/>
  <path d="M31 30l5 6h-5" fill="#FBBD40" stroke="#3A1F54" stroke-width="2.5" stroke-linecap="round" stroke-linejoin="round"/>
  <!-- flame -->
  <path d="M21 34q3 10 3 12q0-2 3-12" fill="#3A1F54" stroke="#3A1F54" stroke-width="1.5" stroke-linejoin="round"/>
  <path d="M22 34q2 7 2 9q0-2 2-9" fill="#FBBD40"/>
</svg>
