<svg xmlns="http://www.w3.org/2000/svg" viewBox="0 0 32 32">
  <!-- bread body -->
  <path d="M5 20c0-7 3.5-14 11-14s11 7 11 14c0 3-1.5 6-3 6H8c-1.5 0-3-3-3-6z" fill="#FBBD40" stroke="#3A1F54" stroke-width="2" stroke-linejoin="round"/>
  <!-- score lines -->
  <path d="M13 9c-.6 4-.6 8 0 12" stroke="#3A1F54" stroke-width="1.3" stroke-linecap="round" fill="none"/>
  <path d="M16 7.5c0 4 0 8 0 14" stroke="#3A1F54" stroke-width="1.3" stroke-linecap="round" fill="none"/>
  <path d="M19 9c.6 4 .6 8 0 12" stroke="#3A1F54" stroke-width="1.3" stroke-linecap="round" fill="none"/>
  <!-- face -->
  <circle cx="13" cy="17" r="1.2" fill="#3A1F54"/>
  <circle cx="19" cy="17" r="1.2" fill="#3A1F54"/>
  <path d="M14.5 20.5q1.5 1.5 3 0" stroke="#3A1F54" stroke-width="1.2" stroke-linecap="round" fill="none"/>
  <!-- base plate -->
  <rect x="7" y="25" width="18" height="3" rx="1.5" fill="#FBBD40" stroke="#3A1F54" stroke-width="1.8"/>
</svg>
